<svg width="303" height="145" viewBox="0 0 303 145" fill="none" xmlns="http://www.w3.org/2000/svg">
<mask id="path-1-inside-1_118_11" fill="white">
<path fill-rule="evenodd" clip-rule="evenodd" d="M10 0C4.47715 0 0 4.47715 0 10V131C0 136.523 4.47715 141 10 141H255.125C255.333 141.019 255.551 141.038 255.778 141.057L295.839 144.538C299.97 144.897 302.035 145.076 302.65 143.883C303.264 142.691 301.919 141.113 299.229 137.958L280 115.401V10C280 4.47715 275.523 0 270 0H10Z"/>
</mask>
<path d="M255.125 141L255.214 140.004L255.17 140H255.125V141ZM255.778 141.057L255.865 140.061L255.865 140.061L255.778 141.057ZM295.839 144.538L295.753 145.534L295.753 145.534L295.839 144.538ZM302.65 143.883L301.761 143.425L301.761 143.425L302.65 143.883ZM299.229 137.958L298.468 138.606L298.468 138.606L299.229 137.958ZM280 115.401H279V115.769L279.239 116.05L280 115.401ZM1 10C1 5.02943 5.02944 1 10 1V-1C3.92487 -1 -1 3.92486 -1 10H1ZM1 131V10H-1V131H1ZM10 140C5.02943 140 1 135.971 1 131H-1C-1 137.075 3.92486 142 10 142V140ZM255.125 140H10V142H255.125V140ZM255.865 140.061C255.637 140.041 255.421 140.022 255.214 140.004L255.036 141.996C255.246 142.015 255.465 142.034 255.692 142.054L255.865 140.061ZM295.926 143.541L255.865 140.061L255.692 142.054L295.753 145.534L295.926 143.541ZM301.761 143.425C301.72 143.504 301.573 143.737 300.51 143.794C299.488 143.848 298.024 143.724 295.926 143.541L295.753 145.534C297.785 145.71 299.419 145.855 300.617 145.791C301.772 145.729 302.965 145.455 303.539 144.341L301.761 143.425ZM298.468 138.606C299.835 140.21 300.786 141.329 301.335 142.193C301.905 143.092 301.801 143.347 301.761 143.425L303.539 144.341C304.113 143.228 303.643 142.097 303.023 141.121C302.38 140.109 301.314 138.861 299.99 137.309L298.468 138.606ZM279.239 116.05L298.468 138.606L299.99 137.309L280.761 114.752L279.239 116.05ZM279 10V115.401H281V10H279ZM270 1C274.971 1 279 5.02944 279 10H281C281 3.92487 276.075 -1 270 -1V1ZM10 1H270V-1H10V1Z" fill="black" mask="url(#path-1-inside-1_118_11)"/>
</svg>
